<?xml version="1.0" standalone="no"?>
<!DOCTYPE svg PUBLIC "-//W3C//DTD SVG 20010904//EN"
 "http://www.w3.org/TR/2001/REC-SVG-20010904/DTD/svg10.dtd">
<svg version="1.0" xmlns="http://www.w3.org/2000/svg"
 width="511.000000pt" height="627.000000pt" viewBox="0 0 511.000000 627.000000"
 preserveAspectRatio="xMidYMid meet">

<g transform="translate(0.000000,627.000000) scale(0.100000,-0.100000)"
fill="#000000" stroke="none">
<path d="M2972 6234 c-371 -98 -832 -353 -1033 -572 -130 -143 -193 -350 -158
-524 13 -66 20 -86 81 -226 88 -202 99 -335 38 -459 -27 -55 -69 -103 -90
-103 -4 0 -5 22 -2 49 7 74 -16 218 -44 277 -28 58 -77 108 -150 149 -159 91
-205 158 -212 308 -5 103 7 169 49 268 16 37 29 71 29 74 0 4 -26 -8 -57 -25
-146 -82 -364 -310 -461 -480 -42 -74 -89 -220 -97 -300 -10 -91 15 -223 69
-367 72 -193 86 -248 85 -327 -1 -133 -46 -196 -139 -196 -120 0 -248 138
-295 320 -21 80 -15 227 16 387 11 58 18 108 15 111 -8 7 -80 -42 -132 -90
-97 -89 -200 -258 -248 -407 -68 -210 -70 -396 -4 -596 40 -125 97 -225 235
-416 137 -188 173 -248 203 -338 24 -73 21 -115 -12 -170 -18 -29 -25 -32 -53
-28 -17 3 -54 19 -81 35 -74 45 -116 55 -208 50 -57 -4 -101 -13 -148 -32 -84
-35 -161 -83 -155 -99 2 -6 22 -17 44 -23 23 -7 65 -28 95 -46 142 -91 190
-205 257 -611 50 -299 83 -415 161 -572 170 -340 530 -672 955 -880 333 -164
610 -232 980 -242 400 -11 748 64 1100 236 300 147 569 361 772 611 350 434
534 1041 494 1630 -15 208 -22 243 -99 475 -66 198 -66 201 -66 310 0 97 5
129 42 268 37 139 42 170 42 266 0 138 -20 240 -76 399 -25 70 -61 170 -79
222 -83 230 -65 376 63 525 29 33 52 63 52 68 0 4 -19 5 -42 1 -324 -45 -523
-237 -575 -554 -15 -90 -15 -120 -4 -258 13 -164 9 -195 -26 -234 -25 -28 -89
-24 -118 8 -33 35 -39 86 -24 215 36 328 -74 616 -335 874 -94 94 -176 160
-339 275 -230 161 -297 247 -305 391 -6 101 9 161 74 292 63 125 67 121 -84
81z m-191 -364 c-7 -40 -16 -81 -21 -91 -31 -57 12 -229 83 -334 27 -40 110
-101 357 -263 295 -194 424 -345 438 -508 l5 -66 -67 66 c-133 130 -386 283
-576 347 -110 37 -242 49 -306 29 -114 -36 -147 -89 -208 -334 -78 -312 -156
-423 -350 -500 -83 -33 -173 -51 -209 -42 -32 8 -35 22 -6 31 32 10 94 70 127
123 53 84 67 143 67 282 -1 118 -4 136 -53 323 -60 231 -67 317 -32 431 55
176 253 367 520 501 102 51 220 90 238 79 2 -1 -1 -35 -7 -74z m-1511 -775
c-12 -203 8 -253 139 -345 42 -29 89 -65 105 -79 70 -64 106 -161 106 -285
l-1 -81 -47 55 c-89 103 -117 130 -154 145 -65 26 -68 16 -68 -215 0 -215 -11
-299 -53 -412 -48 -125 -134 -231 -227 -280 -34 -17 -65 -24 -125 -26 -71 -3
-87 0 -140 26 l-60 29 75 0 c93 1 140 13 210 55 108 65 157 168 147 312 -6 82
-27 155 -102 346 -125 317 -116 478 41 717 45 68 150 180 159 171 2 -2 0 -61
-5 -133z m3198 -297 c-15 -63 -14 -195 1 -258 7 -30 44 -118 82 -195 68 -138
85 -192 89 -290 6 -123 -6 -136 -40 -46 -26 71 -57 102 -101 104 -29 2 -34 -2
-50 -43 -10 -25 -23 -72 -30 -105 -15 -81 -61 -126 -160 -156 -124 -38 -249
-12 -316 65 -41 45 -42 60 -5 52 118 -25 165 -29 216 -17 121 27 139 99 102
416 -25 212 -11 297 70 406 41 56 106 109 134 109 16 0 17 -5 8 -42z m-4032
-628 c-18 -93 -21 -273 -5 -339 5 -24 33 -96 61 -159 63 -143 72 -213 36 -282
-13 -24 -28 -46 -35 -48 -22 -6 -85 74 -128 163 -63 131 -79 209 -72 353 7
144 23 202 95 351 54 111 56 114 60 79 2 -20 -4 -73 -12 -118z m2342 -600
c236 -26 470 -107 665 -233 l68 -43 -70 -62 c-38 -34 -71 -59 -74 -55 -2 5
-10 29 -17 56 -23 85 -35 67 -49 -76 -7 -69 -10 -75 -71 -155 l-64 -83 -13 38
c-24 70 -24 70 -33 48 -5 -11 -9 -55 -9 -97 -1 -70 -5 -85 -45 -168 -25 -49
-47 -96 -49 -103 -3 -8 -10 -6 -20 8 -8 11 -25 31 -37 45 l-21 25 5 -50 c4
-27 9 -62 12 -77 l6 -28 -366 0 c-201 0 -366 3 -366 8 0 4 7 29 15 56 18 58
20 110 4 101 -6 -4 -23 -24 -38 -46 l-29 -39 -41 87 c-37 76 -42 97 -47 176
-6 119 -16 135 -41 68 l-19 -52 -59 78 c-32 43 -107 126 -166 184 l-108 105
67 44 c205 134 431 211 707 244 67 7 211 5 303 -4z m999 -519 c41 -47 99 -122
129 -168 56 -85 154 -276 154 -300 0 -10 -58 -13 -302 -15 -424 -4 -658 -4
-658 0 0 2 19 44 41 93 40 84 43 89 78 94 174 25 191 37 82 58 -34 6 -61 17
-61 23 0 6 28 49 63 95 63 83 63 84 118 91 29 4 73 10 97 13 23 4 42 10 42 15
0 5 -27 17 -61 27 l-61 18 78 67 78 66 55 -46 c30 -26 88 -85 128 -131z
m-2001 17 c80 -82 184 -213 184 -233 0 -7 -19 -15 -48 -19 -27 -3 -57 -12 -67
-20 -16 -12 -14 -14 28 -24 25 -7 58 -12 74 -12 64 0 77 -14 130 -138 l14 -33
-73 7 -73 7 24 -27 24 -26 -421 0 -421 0 13 38 c69 190 195 381 359 544 l89
88 46 -39 c26 -22 79 -72 118 -113z m-564 -719 c29 -28 30 -34 25 -84 -3 -30
-8 -59 -12 -65 -3 -5 -44 -10 -91 -10 l-84 0 6 25 c4 17 2 27 -8 30 -8 3 -86
4 -173 3 -116 -2 -151 -6 -127 -12 19 -5 36 -14 38 -20 2 -6 -7 -67 -21 -136
-20 -97 -23 -125 -13 -132 7 -4 64 -8 126 -8 l114 0 11 30 11 30 84 0 84 0 -6
-37 c-15 -81 -27 -113 -53 -132 -24 -20 -39 -21 -270 -21 l-244 0 -24 25 c-17
16 -25 35 -25 58 0 51 78 427 92 446 31 39 37 40 286 41 l244 0 30 -31z m348
22 c0 -5 -9 -53 -20 -106 -11 -53 -20 -99 -20 -101 0 -3 64 -3 142 -2 l142 3
21 105 21 105 88 3 c88 3 88 3 83 -20 -3 -13 -29 -141 -58 -285 l-52 -263 -87
0 -87 0 22 110 22 110 -142 0 -142 0 -13 -62 c-6 -35 -16 -84 -22 -110 l-10
-48 -84 0 c-62 0 -84 3 -84 13 0 12 92 479 105 535 5 21 10 22 90 22 47 0 85
-4 85 -9z m780 1 c0 -4 -25 -131 -55 -282 -30 -151 -55 -275 -55 -277 0 -2
-38 -3 -85 -3 -63 0 -85 3 -85 13 0 12 92 479 105 535 5 21 10 22 90 22 47 0
85 -4 85 -8z m692 -23 c29 -28 30 -34 25 -84 -3 -30 -8 -59 -12 -65 -3 -5 -43
-10 -90 -10 l-84 0 2 28 2 27 -127 3 c-125 3 -128 2 -133 -20 -3 -13 -16 -79
-30 -147 -20 -98 -23 -126 -13 -133 7 -4 64 -8 126 -8 l114 0 11 30 11 30 84
0 84 0 -6 -37 c-15 -81 -27 -113 -53 -132 -24 -20 -39 -21 -270 -21 l-244 0
-24 25 c-17 16 -25 35 -25 58 0 51 78 427 92 446 31 39 37 40 286 41 l244 0
30 -31z m709 2 c16 -16 29 -40 29 -53 0 -13 -21 -128 -46 -255 l-47 -233 -83
0 c-96 0 -92 -5 -70 98 l14 62 -123 0 c-139 0 -122 12 -145 -102 l-11 -58 -85
0 c-60 0 -84 3 -84 13 0 24 91 473 102 500 21 55 32 57 286 57 l234 0 29 -29z
m369 26 c0 -2 -18 -93 -40 -202 -22 -109 -40 -207 -40 -217 0 -17 12 -18 175
-18 l175 0 -5 -22 c-3 -13 -9 -41 -13 -63 l-8 -40 -272 -3 c-220 -2 -272 0
-272 11 0 12 92 479 105 535 5 21 10 22 100 22 52 0 95 -1 95 -3z m610 -5 c0
-4 -25 -131 -55 -282 -30 -151 -55 -275 -55 -277 0 -2 -38 -3 -85 -3 -63 0
-85 3 -85 13 0 12 92 479 105 535 5 21 10 22 90 22 47 0 85 -4 85 -8z m-3344
-735 c24 -28 30 -60 18 -91 -9 -23 -144 -23 -144 -1 0 13 -20 15 -127 14 -103
-1 -122 -3 -96 -11 24 -8 32 -16 30 -32 -2 -20 3 -21 131 -26 126 -5 135 -6
153 -29 22 -27 23 -53 4 -141 -10 -47 -21 -71 -40 -87 -25 -22 -34 -23 -198
-23 -142 0 -177 3 -195 16 -30 21 -43 56 -36 94 6 30 7 30 75 30 55 0 69 -3
69 -15 0 -13 20 -15 123 -14 67 1 111 4 97 8 -18 5 -25 14 -25 31 0 25 0 25
-128 30 -126 5 -129 6 -153 33 -27 32 -28 40 -13 123 12 67 30 101 62 114 12
5 100 8 195 7 l174 -2 24 -28z m618 23 c46 -17 50 -45 26 -166 -32 -160 -22
-154 -247 -154 -153 0 -183 -2 -183 -15 0 -7 -5 -37 -11 -65 l-11 -50 -72 0
-73 0 43 218 c24 119 46 223 49 230 6 15 439 17 479 2z m560 0 c14 -5 32 -20
41 -34 16 -23 14 -35 -19 -203 -29 -142 -40 -182 -57 -195 -19 -16 -45 -18
-213 -18 -177 0 -194 2 -213 20 -12 10 -24 28 -27 38 -8 24 58 348 75 369 8 8
22 19 34 23 28 12 348 12 379 0z m641 -4 c46 -20 51 -47 30 -159 -26 -135 -34
-146 -107 -159 -14 -3 -13 -11 12 -65 l29 -63 -70 0 -69 0 -29 65 -30 66 -83
-3 -82 -3 -8 -40 c-18 -92 -11 -85 -87 -85 l-68 0 43 218 c24 119 46 223 49
230 7 19 423 17 470 -2z m585 9 c0 -2 -5 -27 -11 -54 l-10 -50 -77 -3 -76 -3
-35 -172 -34 -173 -77 0 -77 0 33 167 c19 92 34 170 34 175 0 4 -36 8 -79 8
l-79 0 9 43 c5 23 12 48 14 55 3 9 59 12 235 12 126 0 230 -2 230 -5z m506
-28 c24 -28 30 -60 18 -91 -9 -23 -144 -23 -144 -1 0 12 -17 15 -94 15 l-94 0
-5 -27 c-3 -16 -3 -31 0 -35 2 -5 60 -8 129 -8 119 0 126 -1 149 -25 29 -28
30 -52 10 -145 -10 -47 -21 -71 -40 -87 -25 -22 -34 -23 -198 -23 -142 0 -177
3 -195 16 -30 21 -43 56 -36 94 6 30 7 30 75 30 55 0 69 -3 69 -15 0 -12 17
-15 94 -15 l94 0 5 27 c3 16 3 31 0 35 -2 5 -58 8 -124 8 -120 0 -121 0 -150
29 -32 33 -34 42 -18 127 12 67 30 101 62 114 12 5 100 8 195 7 l174 -2 24
-28z m-2617 -617 l146 -1 -94 -89 c-51 -50 -99 -90 -106 -90 -14 0 -185 169
-185 183 0 6 18 7 46 3 26 -3 113 -6 193 -6z m1610 -26 c13 -17 21 -41 21 -67
0 -22 5 -69 11 -105 12 -69 21 -68 39 3 6 22 13 46 15 53 3 9 29 -8 75 -49 38
-34 70 -65 70 -68 0 -9 -141 -92 -228 -136 -287 -142 -663 -187 -992 -119
-100 20 -268 78 -355 121 -77 38 -235 135 -234 143 0 3 31 32 70 65 38 33 93
87 122 122 l52 62 657 0 657 1 20 -26z m472 -23 c-22 -26 -65 -69 -96 -96
l-56 -47 -71 59 c-40 33 -73 64 -75 69 -2 5 25 17 59 27 45 14 58 21 47 28 -9
5 31 9 109 9 l124 0 -41 -49z"/>
<path d="M3345 2238 c-4 -14 -25 -116 -25 -123 0 -3 55 -5 123 -5 l123 0 12
61 c6 34 9 66 6 70 -9 15 -234 11 -239 -3z"/>
<path d="M1636 1543 c-3 -10 -8 -35 -12 -55 l-6 -38 125 0 c69 0 128 3 130 8
3 4 8 28 12 55 l7 47 -125 0 c-111 0 -126 -2 -131 -17z"/>
<path d="M2255 1548 c-6 -16 -45 -207 -45 -219 0 -5 47 -9 104 -9 l103 0 22
108 c11 59 21 113 21 120 0 9 -27 12 -100 12 -71 0 -102 -4 -105 -12z"/>
<path d="M2831 1510 c-6 -28 -11 -53 -11 -55 0 -3 58 -5 129 -5 l128 0 7 38
c12 77 20 72 -118 72 l-124 0 -11 -50z"/>
</g>
</svg>
